<svg width="64" height="22" viewBox="0 0 64 22" fill="none" xmlns="http://www.w3.org/2000/svg">
<path d="M40.4378 7.03145C44.1677 5.82823 47.5766 4.82737 50.4624 4.12201C53.438 3.39472 55.7765 3.00272 57.3143 3.00001C58.1023 2.99863 58.5411 3.10221 58.7393 3.20569C58.7539 3.21332 58.7656 3.22011 58.7749 3.22591L58.7745 3.22939C58.7555 3.40589 58.604 3.81458 58.0588 4.5129C57.5363 5.18222 56.7352 6.01425 55.6051 7.02549C53.3474 9.04562 49.8708 11.6978 44.9338 15.0888L46.0662 16.7374C51.0292 13.3284 54.587 10.6202 56.9387 8.51595C58.1132 7.46502 59.0106 6.54389 59.6353 5.74363C60.2374 4.97237 60.682 4.19505 60.763 3.44369C60.8065 3.03993 60.7466 2.62377 60.5316 2.24361C60.3197 1.86887 60.0023 1.60891 59.6649 1.43276C59.026 1.09922 58.1867 0.998475 57.3107 1.00002C55.5204 1.00317 52.987 1.44606 49.9876 2.1792C45.6547 3.23825 40.1801 4.94711 34.2243 7H40.3201C40.3558 7 40.3957 7.01036 40.4378 7.03145Z" fill="#8A8A8A"/>
<path d="M34.6306 8.97536C34.2261 8.27178 33.8646 7.4126 33.9028 7.111C23.3945 10.7443 11.4337 15.4254 1.61749 19.4891L2.38249 21.3371C12.2317 17.2597 24.1816 12.5859 34.6306 8.97536Z" fill="#8A8A8A"/>
<path d="M27 4H20L14 18.5H19L23.5 7L28 18.5H33L27 4Z" fill="currentColor"/>
<path fill-rule="evenodd" clip-rule="evenodd" d="M6.43138 7.5C6.13948 7.5 5.86603 7.64277 5.69919 7.88229C5.35123 8.38184 5.59464 9.07547 6.17846 9.24803L12.6277 11.1542C15.722 12.0688 16.716 14.9576 14.44 17.2448C13.6404 18.0483 12.5537 18.5 11.4201 18.5H6.81648C4.19312 18.5 2.06648 16.3734 2.06648 13.75V13.0259H5.56648V13.75C5.56648 14.4404 6.12612 15 6.81648 15H11.4201C11.6224 15 11.8164 14.9194 11.959 14.776C12.3652 14.3678 12.2123 13.9132 11.6601 13.75L5.03655 12C2.16276 11.1506 1.11444 8.34073 2.82726 5.88179C3.64852 4.70278 4.99453 4 6.43138 4H10.8753C13.4987 4 15.6253 6.12665 15.6253 8.75V9.88793H12.1253V8.75C12.1253 8.05964 11.5657 7.5 10.8753 7.5H6.43138Z" fill="currentColor"/>
<path fill-rule="evenodd" clip-rule="evenodd" d="M33.2 18.5H35V13H39L42 18.5H46L43 13C43 13 45 11.5 45 9C45 6.5 44 4 42 4H30V11L33.2 18.5ZM40.3201 7H34C33.5 7 35 10 35.5 10H40.3194C40.3194 10 41 9.64 41 8.56001C41 7.48002 40.5631 7 40.3201 7Z" fill="currentColor"/>
<path fill-rule="evenodd" clip-rule="evenodd" d="M46 4V18.5H56C56 18.5 62 18 62 11.5C62 5 56 4 56 4H46ZM50 7V15.9959H54.0606C54.0606 15.9959 58 15.9979 58 11.5C58 7.00207 54.0606 7 54.0606 7H50Z" fill="currentColor"/>
</svg>
