<svg width="320" height="702" viewBox="0 0 320 702" fill="none" xmlns="http://www.w3.org/2000/svg">
<path d="M218.746 702.041C113.867 627.286 -70.3275 444.138 31.9203 309.58C134.168 175.022 255.243 46.6545 311 19.5406" stroke="url(#paint0_linear_2_85)" stroke-width="3"/>
<path d="M319 1.54065L207 23.5406L240.5 37.5406L319 1.54065Z" fill="#D9D9D9"/>
<path d="M251.5 43.0406L316 3.54065L297.5 53.5406L270.415 47.3583L251.5 65.5406V43.0406Z" fill="#D9D9D9"/>
<path fill-rule="evenodd" clip-rule="evenodd" d="M317.469 3.89299L298.45 55.2961L270.871 49.0009L251 68.1014L237.63 38.1522L237.844 38.0566L201.865 23.0206L318.711 0.0688022L318.725 0.112885L318.909 0L318.791 0.318752L319.625 2.90414L317.469 3.89299ZM306.875 5.45108L212.135 24.0608L240.472 35.9033L306.875 5.45108ZM241.23 38.8561L250 58.5011V42.2004L297.893 12.8705L241.23 38.8561ZM304.993 12.0401L255.422 42.3974L269.96 45.7157L304.993 12.0401ZM273.458 46.5143L296.55 51.7853L312.323 9.15572L273.458 46.5143ZM267.373 48.2024L253 44.9216V62.0182L267.373 48.2024Z" fill="white"/>
<defs>
<linearGradient id="paint0_linear_2_85" x1="164.5" y1="60.0406" x2="164.5" y2="702.04" gradientUnits="userSpaceOnUse">
<stop stop-color="white"/>
<stop offset="1"/>
</linearGradient>
</defs>
</svg>
